<?xml version="1.0" encoding="UTF-8"?>
<!DOCTYPE svg PUBLIC "-//W3C//DTD SVG 1.1//EN" "http://www.w3.org/Graphics/SVG/1.1/DTD/svg11.dtd">
<svg xmlns="http://www.w3.org/2000/svg" version="1.1" width="512px" height="512px" style="shape-rendering:geometricPrecision; text-rendering:geometricPrecision; image-rendering:optimizeQuality; fill-rule:evenodd; clip-rule:evenodd" xmlns:xlink="http://www.w3.org/1999/xlink">
<g><path style="opacity:0.977" fill="#000000" d="M 246.5,-0.5 C 252.5,-0.5 258.5,-0.5 264.5,-0.5C 292.626,7.36757 305.793,26.0342 304,55.5C 298.33,81.4437 282.163,95.4437 255.5,97.5C 228.824,95.4398 212.657,81.4398 207,55.5C 205.207,26.0342 218.374,7.36757 246.5,-0.5 Z"/></g>
<g><path style="opacity:0.986" fill="#000000" d="M 294.5,511.5 C 289.5,511.5 284.5,511.5 279.5,511.5C 270.218,508.321 264.051,501.988 261,492.5C 260.5,425.167 260.333,357.834 260.5,290.5C 257.167,290.5 253.833,290.5 250.5,290.5C 250.667,357.501 250.5,424.501 250,491.5C 247.075,501.256 240.908,507.922 231.5,511.5C 226.5,511.5 221.5,511.5 216.5,511.5C 205.526,507.688 199.026,500.022 197,488.5C 196.5,373.5 196.333,258.5 196.5,143.5C 142.499,143.667 88.499,143.5 34.5,143C 23.6681,137.483 20.5014,128.983 25,117.5C 27.8117,113.338 31.645,110.505 36.5,109C 182.5,108.333 328.5,108.333 474.5,109C 485.314,113.121 489.48,120.954 487,132.5C 484.833,137.333 481.333,140.833 476.5,143C 422.501,143.5 368.501,143.667 314.5,143.5C 314.667,258.5 314.5,373.5 314,488.5C 311.945,500.047 305.445,507.713 294.5,511.5 Z"/></g>
</svg>
